#N canvas 340 205 603 522 10;
#X obj 118 174 *~;
#X obj 184 109 hsl 128 15 0 10 0 0 empty empty gain -2 -8 0 10 -204786
-1 -1 2016 1;
#X obj 69 212 *~;
#X floatatom 26 164 5 0 1 2 dry_signal - -;
#X obj 135 242 *~;
#X obj 166 269 *~;
#X obj 205 261 hsl 128 15 0 1 0 0 empty empty output -2 -8 0 10 -204786
-1 -1 10160 1;
#X obj 180 211 rev2~ 100 90 3000 20;
#X floatatom 237 180 5 0 0 2 Room_Size - -;
#X floatatom 299 181 5 0 0 2 dampening - -;
#X obj 92 63 inlet~;
#X obj 54 437 outlet~;
#X obj 96 394 *~ 1;
#X obj 375 89 loadbang;
#X msg 373 112 0.5;
#X msg 412 133 0.2;
#X obj 308 74 inlet;
#X text 90 35 signal;
#X text 290 44 gain inlet #2;
#X obj 366 220 inlet;
#X text 382 198 output gain #3;
#X obj 435 264 inlet;
#X text 473 237 dry signal gain #4;
#X floatatom 181 129 5 0 0 0 - - -;
#X connect 0 0 2 0;
#X connect 0 0 7 0;
#X connect 1 0 0 1;
#X connect 1 0 23 0;
#X connect 2 0 12 0;
#X connect 3 0 2 1;
#X connect 4 0 12 0;
#X connect 5 0 12 0;
#X connect 6 0 4 1;
#X connect 7 0 4 0;
#X connect 7 1 5 0;
#X connect 8 0 7 2;
#X connect 9 0 7 4;
#X connect 10 0 0 0;
#X connect 12 0 11 0;
#X connect 13 0 14 0;
#X connect 13 0 15 0;
#X connect 14 0 6 0;
#X connect 14 0 1 0;
#X connect 15 0 3 0;
#X connect 16 0 1 0;
#X connect 19 0 6 0;
#X connect 21 0 3 0;
