#N canvas 587 162 616 765 10;
#X floatatom 306 378 5 0 0 0 - - - 0;
#X floatatom 129 289 5 0 0 0 - - - 0;
#X obj 164 316 % 12;
#X msg 303 480 -1;
#X obj 128 502 +;
#X msg 144 397 0;
#X floatatom 128 525 5 0 0 0 - - - 0;
#X obj 128 661 mtof;
#X obj 128 682 osc~;
#X obj 67 228 random 25;
#X floatatom 67 274 5 0 0 0 - - - 0;
#X obj 306 400 - 1;
#X floatatom 451 483 5 0 0 0 - - - 0;
#X msg 450 507 -2;
#X floatatom 303 503 5 0 0 0 - - - 0;
#X floatatom 144 420 5 0 0 0 - - - 0;
#X floatatom 450 530 5 0 0 0 - - - 0;
#X obj 155 252 hsl 128 15 0 127 0 0 empty empty empty -2 -8 0 10 #fcfcfc #000000 #000000 0 1;
#X obj 164 344 select 0 2 3 5 7 9 10;
#X obj 306 423 select 0 2 3 5 7 9 10;
#X obj 69 170 inlet;
#X text 37 142 #1 on/off toggle;
#X text 43 40 random periodic tonal pitch generator;
#X obj 22 169 tgl 15 0 empty empty empty 17 7 0 10 #fcfcfc #000000 #000000 0 1;
#X obj 67 205 metro \$1;
#X obj 174 126 hsl 128 15 1 500 1 0 empty empty speed -2 -8 0 10 #fcfcfc #000000 #000000 0 1;
#X floatatom 171 147 5 0 0 0 - - - 0;
#X obj 169 93 inlet;
#X text 182 68 #2 for speed(inverse);
#X obj 329 150 inlet;
#X obj 127 725 outlet~;
#X obj 67 296 bng 15 250 50 0 empty empty empty 17 7 0 10 #fcfcfc #000000 #000000;
#X obj 127 705 *~;
#X obj 215 655 vline~;
#X msg 234 617 1 10 \, 0 100 10;
#X obj 332 193 hsl 128 15 0 127 0 0 empty empty random_range -2 -8 0 10 #c4fcc4 #000000 #000000 0 1;
#X floatatom 329 213 5 0 0 0 - - - 0;
#X text 328 129 #3 for range;
#X obj 348 624 hradio 15 1 0 12 empty empty key 0 -8 0 10 #c4fcfc #000000 #000000 0;
#X floatatom 348 644 5 0 0 0 - - - 0;
#X text 402 602 0 is Bb;
#X obj 348 582 inlet;
#X text 347 561 #4 is for numeric key offset 1-11;
#X obj 67 250 + 48;
#X obj 128 551 + \$0;
#X floatatom 128 574 5 0 0 0 - - - 0;
#X obj 173 620 - 12;
#X floatatom 173 642 5 0 0 0 - - - 0;
#X obj 128 596 moses 90;
#X connect 0 0 11 0;
#X connect 1 0 2 0;
#X connect 1 0 4 0;
#X connect 2 0 18 0;
#X connect 3 0 14 0;
#X connect 4 0 6 0;
#X connect 5 0 15 0;
#X connect 6 0 44 0;
#X connect 7 0 8 0;
#X connect 8 0 32 0;
#X connect 9 0 43 0;
#X connect 10 0 1 0;
#X connect 10 0 31 0;
#X connect 11 0 19 0;
#X connect 12 0 13 0;
#X connect 13 0 16 0;
#X connect 14 0 4 1;
#X connect 15 0 4 1;
#X connect 16 0 4 1;
#X connect 17 0 1 0;
#X connect 18 0 5 0;
#X connect 18 1 5 0;
#X connect 18 2 5 0;
#X connect 18 3 5 0;
#X connect 18 4 5 0;
#X connect 18 5 5 0;
#X connect 18 6 5 0;
#X connect 18 7 0 0;
#X connect 19 0 3 0;
#X connect 19 1 3 0;
#X connect 19 2 3 0;
#X connect 19 3 3 0;
#X connect 19 4 3 0;
#X connect 19 5 3 0;
#X connect 19 6 3 0;
#X connect 19 7 12 0;
#X connect 20 0 24 0;
#X connect 23 0 24 0;
#X connect 24 0 9 0;
#X connect 25 0 26 0;
#X connect 26 0 24 1;
#X connect 27 0 25 0;
#X connect 29 0 35 0;
#X connect 31 0 34 0;
#X connect 32 0 30 0;
#X connect 33 0 32 1;
#X connect 34 0 33 0;
#X connect 35 0 36 0;
#X connect 36 0 9 1;
#X connect 38 0 39 0;
#X connect 39 0 44 1;
#X connect 41 0 38 0;
#X connect 43 0 10 0;
#X connect 44 0 45 0;
#X connect 45 0 48 0;
#X connect 46 0 47 0;
#X connect 47 0 7 0;
#X connect 48 0 7 0;
#X connect 48 1 46 0;
